<svg xmlns="http://www.w3.org/2000/svg" width="740" height="529" viewBox="0 0 1120 800" role="img" aria-labelledby="title"><title id="title">단일 계획 스택 · EPIC 미확정</title>
<defs><marker id="arrow" markerWidth="9" markerHeight="9" refX="8" refY="4" orient="auto"><path d="M0 0 L8 4 L0 8" fill="none" stroke="#52647a"/></marker></defs>
<rect width="1120" height="800" fill="#f8fafc"/>
<text x="28" y="36" font-family="sans-serif" font-size="22" fill="#142b45">단일 계획 스택 · EPIC 미확정</text>
<rect x="25" y="70" width="200" height="695" rx="8" fill="#e8eef6"/><text x="37" y="94" font-family="sans-serif" font-size="15">contracts</text>
<rect x="240" y="70" width="200" height="695" rx="8" fill="#e8eef6"/><text x="252" y="94" font-family="sans-serif" font-size="15">db</text>
<rect x="455" y="70" width="200" height="695" rx="8" fill="#e8eef6"/><text x="467" y="94" font-family="sans-serif" font-size="15">api</text>
<rect x="670" y="70" width="200" height="695" rx="8" fill="#e8eef6"/><text x="682" y="94" font-family="sans-serif" font-size="15">web</text>
<rect x="885" y="70" width="200" height="695" rx="8" fill="#e8eef6"/><text x="897" y="94" font-family="sans-serif" font-size="15">e2e</text>
<rect x="35" y="120" width="180" height="62" rx="8" fill="white" stroke="#41698b" stroke-width="2"/>
<text x="47" y="145" font-family="sans-serif" font-size="15" fill="#142b45">B01</text>
<text x="47" y="168" font-family="sans-serif" font-size="15" fill="#142b45">계약·저장</text>
<rect x="250" y="120" width="180" height="62" rx="8" fill="white" stroke="#41698b" stroke-width="2"/>
<text x="262" y="145" font-family="sans-serif" font-size="15" fill="#142b45">B01</text>
<text x="262" y="168" font-family="sans-serif" font-size="15" fill="#142b45">계약·저장</text>
<rect x="465" y="120" width="180" height="62" rx="8" fill="white" stroke="#41698b" stroke-width="2"/>
<text x="477" y="145" font-family="sans-serif" font-size="15" fill="#142b45">B01</text>
<text x="477" y="168" font-family="sans-serif" font-size="15" fill="#142b45">계약·저장</text>
<rect x="465" y="225" width="180" height="62" rx="8" fill="white" stroke="#41698b" stroke-width="2"/>
<text x="477" y="250" font-family="sans-serif" font-size="15" fill="#142b45">B02</text>
<text x="477" y="273" font-family="sans-serif" font-size="15" fill="#142b45">가게 벡터</text>
<rect x="465" y="330" width="180" height="62" rx="8" fill="white" stroke="#41698b" stroke-width="2"/>
<text x="477" y="355" font-family="sans-serif" font-size="15" fill="#142b45">B03</text>
<text x="477" y="378" font-family="sans-serif" font-size="15" fill="#142b45">행동 프로필</text>
<rect x="465" y="435" width="180" height="62" rx="8" fill="white" stroke="#41698b" stroke-width="2"/>
<text x="477" y="460" font-family="sans-serif" font-size="15" fill="#142b45">B04</text>
<text x="477" y="483" font-family="sans-serif" font-size="15" fill="#142b45">추천 API</text>
<rect x="680" y="540" width="180" height="62" rx="8" fill="white" stroke="#41698b" stroke-width="2"/>
<text x="692" y="565" font-family="sans-serif" font-size="15" fill="#142b45">B05</text>
<text x="692" y="588" font-family="sans-serif" font-size="15" fill="#142b45">모의 시연</text>
<rect x="465" y="645" width="180" height="62" rx="8" fill="white" stroke="#41698b" stroke-width="2"/>
<text x="477" y="670" font-family="sans-serif" font-size="15" fill="#142b45">B06</text>
<text x="477" y="693" font-family="sans-serif" font-size="15" fill="#142b45">평가·E2E</text>
<rect x="895" y="645" width="180" height="62" rx="8" fill="white" stroke="#41698b" stroke-width="2"/>
<text x="907" y="670" font-family="sans-serif" font-size="15" fill="#142b45">B06</text>
<text x="907" y="693" font-family="sans-serif" font-size="15" fill="#142b45">평가·E2E</text>
<path d="M555 182 V200 H555 V220" fill="none" stroke="#52647a" stroke-width="2" marker-end="url(#arrow)"/>
<text x="563" y="216" font-family="sans-serif" font-size="13" fill="#142b45" stroke="#f8fafc" stroke-width="4" paint-order="stroke">계약·저장</text>
<path d="M555 287 V305 H555 V325" fill="none" stroke="#52647a" stroke-width="2" marker-end="url(#arrow)"/>
<text x="563" y="321" font-family="sans-serif" font-size="13" fill="#142b45" stroke="#f8fafc" stroke-width="4" paint-order="stroke">가게 벡터</text>
<path d="M555 392 V410 H555 V430" fill="none" stroke="#52647a" stroke-width="2" marker-end="url(#arrow)"/>
<text x="563" y="426" font-family="sans-serif" font-size="13" fill="#142b45" stroke="#f8fafc" stroke-width="4" paint-order="stroke">준비 결과</text>
<path d="M555 497 V515 H770 V535" fill="none" stroke="#52647a" stroke-width="2" marker-end="url(#arrow)"/>
<text x="563" y="531" font-family="sans-serif" font-size="13" fill="#142b45" stroke="#f8fafc" stroke-width="4" paint-order="stroke">추천 API</text>
<path d="M770 602 V620 H555 V640" fill="none" stroke="#52647a" stroke-width="2" marker-end="url(#arrow)"/>
<text x="563" y="636" font-family="sans-serif" font-size="13" fill="#142b45" stroke="#f8fafc" stroke-width="4" paint-order="stroke">시연 경로</text>
</svg>