<svg xmlns="http://www.w3.org/2000/svg" width="740" height="506" viewBox="0 0 950 650" role="img" aria-labelledby="title"><title id="title">변경 전 → 후속 S6 설계</title>
<defs><marker id="arrow" markerWidth="9" markerHeight="9" refX="8" refY="4" orient="auto"><path d="M0 0 L8 4 L0 8" fill="none" stroke="#52647a"/></marker></defs>
<rect width="950" height="650" fill="#f8fafc"/>
<text x="28" y="36" font-family="sans-serif" font-size="22" fill="#142b45">변경 전 → 후속 S6 설계</text>
<rect x="35" y="90" width="335" height="78" rx="8" fill="white" stroke="#41698b" stroke-width="2"/>
<text x="47" y="115" font-family="sans-serif" font-size="15" fill="#142b45">apps/web</text>
<text x="47" y="138" font-family="sans-serif" font-size="15" fill="#142b45">발급·소비 화면</text>
<rect x="560" y="90" width="350" height="78" rx="8" fill="white" stroke="#41698b" stroke-width="2"/>
<text x="572" y="115" font-family="sans-serif" font-size="15" fill="#142b45">apps/web</text>
<text x="572" y="138" font-family="sans-serif" font-size="15" fill="#142b45">추천 화면·훅·UI 추가</text>
<rect x="35" y="195" width="335" height="78" rx="8" fill="white" stroke="#41698b" stroke-width="2"/>
<text x="47" y="220" font-family="sans-serif" font-size="15" fill="#142b45">apps/api</text>
<text x="47" y="243" font-family="sans-serif" font-size="15" fill="#142b45">발급·소비·random</text>
<rect x="560" y="195" width="350" height="78" rx="8" fill="white" stroke="#41698b" stroke-width="2"/>
<text x="572" y="220" font-family="sans-serif" font-size="15" fill="#142b45">apps/api</text>
<text x="572" y="243" font-family="sans-serif" font-size="15" fill="#142b45">추천·S6·준비 계층 추가</text>
<rect x="35" y="300" width="335" height="78" rx="8" fill="white" stroke="#41698b" stroke-width="2"/>
<text x="47" y="325" font-family="sans-serif" font-size="15" fill="#142b45">packages/contracts</text>
<text x="47" y="348" font-family="sans-serif" font-size="15" fill="#142b45">발급·소비 계약</text>
<rect x="560" y="300" width="350" height="78" rx="8" fill="white" stroke="#41698b" stroke-width="2"/>
<text x="572" y="325" font-family="sans-serif" font-size="15" fill="#142b45">packages/contracts</text>
<text x="572" y="348" font-family="sans-serif" font-size="15" fill="#142b45">추천 계약 추가</text>
<rect x="35" y="405" width="335" height="78" rx="8" fill="white" stroke="#41698b" stroke-width="2"/>
<text x="47" y="430" font-family="sans-serif" font-size="15" fill="#142b45">packages/db</text>
<text x="47" y="453" font-family="sans-serif" font-size="15" fill="#142b45">JSON 파일 읽기·쓰기</text>
<rect x="560" y="405" width="350" height="78" rx="8" fill="white" stroke="#41698b" stroke-width="2"/>
<text x="572" y="430" font-family="sans-serif" font-size="15" fill="#142b45">packages/db</text>
<text x="572" y="453" font-family="sans-serif" font-size="15" fill="#142b45">S6 직렬화·캡처 추가</text>
<rect x="35" y="510" width="335" height="78" rx="8" fill="white" stroke="#41698b" stroke-width="2"/>
<text x="47" y="535" font-family="sans-serif" font-size="15" fill="#142b45">e2e</text>
<text x="47" y="558" font-family="sans-serif" font-size="15" fill="#142b45">기존 브라우저 시나리오</text>
<rect x="560" y="510" width="350" height="78" rx="8" fill="white" stroke="#41698b" stroke-width="2"/>
<text x="572" y="535" font-family="sans-serif" font-size="15" fill="#142b45">e2e</text>
<text x="572" y="558" font-family="sans-serif" font-size="15" fill="#142b45">추천 재현 시나리오 추가</text>
<path d="M370 129 H550" fill="none" stroke="#52647a" stroke-width="2" marker-end="url(#arrow)"/>
<text x="405" y="119" font-family="sans-serif" font-size="13" fill="#142b45" stroke="#f8fafc" stroke-width="4" paint-order="stroke">후속 변경</text>
<path d="M370 234 H550" fill="none" stroke="#52647a" stroke-width="2" marker-end="url(#arrow)"/>
<text x="405" y="224" font-family="sans-serif" font-size="13" fill="#142b45" stroke="#f8fafc" stroke-width="4" paint-order="stroke">후속 변경</text>
<path d="M370 339 H550" fill="none" stroke="#52647a" stroke-width="2" marker-end="url(#arrow)"/>
<text x="405" y="329" font-family="sans-serif" font-size="13" fill="#142b45" stroke="#f8fafc" stroke-width="4" paint-order="stroke">후속 변경</text>
<path d="M370 444 H550" fill="none" stroke="#52647a" stroke-width="2" marker-end="url(#arrow)"/>
<text x="405" y="434" font-family="sans-serif" font-size="13" fill="#142b45" stroke="#f8fafc" stroke-width="4" paint-order="stroke">후속 변경</text>
<path d="M370 549 H550" fill="none" stroke="#52647a" stroke-width="2" marker-end="url(#arrow)"/>
<text x="405" y="539" font-family="sans-serif" font-size="13" fill="#142b45" stroke="#f8fafc" stroke-width="4" paint-order="stroke">후속 변경</text>
</svg>